<?xml version="1.0" encoding="utf-8"?>
<!-- Generator: Adobe Illustrator 16.0.0, SVG Export Plug-In . SVG Version: 6.00 Build 0)  -->
<!DOCTYPE svg PUBLIC "-//W3C//DTD SVG 1.1//EN" "http://www.w3.org/Graphics/SVG/1.1/DTD/svg11.dtd">
<svg version="1.1" id="Layer_1" xmlns="http://www.w3.org/2000/svg" xmlns:xlink="http://www.w3.org/1999/xlink" x="0px" y="0px"
	 width="500px" height="365.574px" viewBox="0 0 500 365.574" enable-background="new 0 0 500 365.574" xml:space="preserve">
<g id="OBJECTS">
	<g>
		<ellipse opacity="0.17" fill="#231F20" enable-background="new    " cx="74.765" cy="338.33" rx="62.426" ry="7.869"/>
		<ellipse opacity="0.17" fill="#231F20" enable-background="new    " cx="425.234" cy="339.002" rx="62.426" ry="7.869"/>
		<ellipse opacity="0.17" fill="#231F20" enable-background="new    " cx="157.793" cy="339.729" rx="17.554" ry="4.857"/>
		<ellipse opacity="0.17" fill="#231F20" enable-background="new    " cx="214.145" cy="339.729" rx="17.554" ry="4.857"/>
		<g>
			<path fill="#FFC974" d="M159.851,77.645c0,0,1.21,4.327,1.889,5.389c0.679,1.063-2.221,1.742-2.221,1.742l-3.618-2.823
				L159.851,77.645z"/>
			<path fill="#FFC974" d="M153.944,73.948c0,0-1.071,2.312-0.233,5.091c0.699,2.318,4.759,4.871,4.759,4.871l1.381-2.817
				L153.944,73.948z"/>
			<g>
				<path fill="#FFC974" d="M270.859,95.491c0,0,2.089-0.279,3.09-0.336c1-0.058,2.001-6.526,3.178-6.995
					c1.178-0.469,1.441,5.449,1.43,5.948c-0.006,0.203,1.68-0.029,3.854-0.213c3.179-0.268,7.256-0.553,7.396-0.218
					c0.234,0.562-0.869,1.365-0.869,1.365s0.305,1.174-0.867,1.393c0,0-0.038,1.498-1.039,1.556c0,0-0.448,1.236-1.533,1.375
					c0,0,0.396,0.76-1.199,1.301c-1.597,0.542-5.318,0.559-6.064,0.301c-4.096-1.405-6.928-0.136-6.928-0.136L270.859,95.491z"/>
				<path fill="#DE5E82" d="M211.27,76.502c-5.095-2.267-10.615,6.62-7.879,11.458c2.736,4.838,28.168,17.638,30.122,18.003
					c1.954,0.365,39.07-3.584,39.07-3.584l-1.312-8.285c0,0-34.733,0.249-35.876,0.219C234.251,94.283,215.75,78.497,211.27,76.502z
					"/>
			</g>
			<g>
				<path fill="#5A4A42" d="M200.779,231.852l-1.766,10.975l3.991,0.506l0.517-1.391c0,0,6.482,2.312,16.985,1.354
					c0,0-3.917-7.148-13.33-10.486L200.779,231.852z"/>
				<path fill="#5A4A42" d="M175.146,231.512l-1.766,10.975l3.99,0.507l0.518-1.39c0,0,6.481,2.312,16.984,1.354
					c0,0-3.917-7.148-13.329-10.486L175.146,231.512z"/>
				<path fill="#64594D" d="M210.672,127.058c0,0,1.974,42.033,1.974,45.735c0,3.703-3.702,57.799-3.949,60.509h-9.983
					c0,0,2.063-49.714,0.963-56.832c-1.1-7.118-1.294-41.67-1.294-41.67l3.787-12.649L210.672,127.058z"/>
				<path fill="#716558" d="M206.438,125.24l-9.043,56.608l-11.385,52.319l-11.643-2.839c0,0,10.769-47.549,11.026-54.044
					c0,0-6.562-34.399-0.994-59.497L206.438,125.24z"/>
				<polygon fill="#BC4F70" points="198.336,68.307 211.463,72.256 206.438,77.85 				"/>
				<g>
					<g>
						<path fill="#FFC974" d="M204.056,58.964l-5.719,15.92c0,0,4.957,8.96,9.15,4.957l7.053-17.157L204.056,58.964z"/>
						<path opacity="0.17" fill="#231F20" enable-background="new    " d="M202.665,62.834c1.54,1.578,6.196,6.145,9.043,6.738
							l2.832-6.889l-10.484-3.72L202.665,62.834z"/>
					</g>
					<g>
						<path fill="#FFC974" d="M231.083,31.643c0,0,4.003,32.98-16.395,33.742c-20.398,0.763-21.352-23.829-21.352-29.167
							c0-5.337,6.799-13.344,19.032-13.344C224.601,22.874,231.083,28.785,231.083,31.643z"/>
						<path fill="#F8A36A" d="M224.365,49.28c0,0,3.431,6.672,1.715,7.435c-1.716,0.763-3.241,0-3.241,0L224.365,49.28z"/>
						<ellipse fill="#404041" cx="216.467" cy="44.924" rx="2.16" ry="3.177"/>
						<ellipse fill="#404041" cx="228.758" cy="45.425" rx="1.435" ry="2.676"/>
						<ellipse fill="#F8A98D" cx="214.696" cy="50.488" rx="3.233" ry="1.495"/>
						<path fill="#F8A98D" d="M227.323,50.488c0,0.682,0.989,1.257,2.339,1.437c0.281-0.965,0.521-1.947,0.723-2.929
							C228.68,49.036,227.323,49.688,227.323,50.488z"/>
						<ellipse cx="217.507" cy="44.051" rx="0.421" ry="0.873"/>
						<ellipse cx="229.18" cy="44.924" rx="0.422" ry="0.873"/>
						<path fill="#603813" d="M201.181,62.712c0,0,3.291-10.531,3.291-15.961c0,0-4.607,0.357-4.772-5.005
							c-0.164-5.362,5.43-1.577,5.43-1.577s1.316-1.317,1.81-5.595c0,0,20.897,8.062,28.631,0
							c7.733-8.063-0.077-16.663-9.009-13.986c0,0-5.211-8.316-15.837-7.076c-11.271,1.317-11.028,8.062-11.028,8.062
							s-10.856-0.329-12.173,12.177S194.105,59.257,201.181,62.712z"/>
						<g>
							<path fill="#F3847F" d="M213.511,58.964c0,0-2.275-4.292,0-4.722c2.276-0.43,1.937,4.292,1.937,4.292L213.511,58.964z"/>
							<polygon fill="#D3736F" points="214.125,58.721 213.983,56.285 214.696,58.621 							"/>
						</g>
						<path fill="none" stroke="#716558" stroke-width="0.5898" stroke-linecap="round" stroke-miterlimit="10" d="M221.667,62.044
							c0,0-4.691-5.595-9.298-2.551"/>
					</g>
				</g>
				<path fill="#BC4F70" d="M197.067,72.256c0,0-16.59,11.477-17.495,58.735c0,0,8.564,8.926,24.85,11.395l1.149-6.582l1.086,6.582
					c0,0,3.736-2.633,6.699-4.607l-0.988-60.134l-5.93,0.206L197.067,72.256z"/>
				<polygon fill="#F0668C" points="199.37,69.572 206.438,77.85 201.345,82.458 195.092,72.091 198.336,68.307 				"/>
				<polygon fill="#F0668C" points="206.438,77.85 211.463,72.256 213.357,77.645 209.469,83.033 				"/>
				<path fill="#FFD700" d="M206.438,77.85c0,0-5.789,33.602,3.459,50.714l4.643,1.152l1.619-4.937
					C216.159,124.78,206.438,108.654,206.438,77.85z"/>
				<path fill="#DE5E82" d="M195.527,73.246c-4.196-2.279-16.236,19.582-17.29,20.459C177.184,94.583,163.2,80.87,163.2,80.87
					l-6.58,4.645c0,0,13.631,20.472,19.774,21.004c1.441,0.125,3.174,0.97,5.014-0.274c6-4.06,14.177-18.201,15.902-20.889
					C199.564,81.846,201.671,76.581,195.527,73.246z"/>
			</g>
			<g>
				<g>
					<rect x="155.901" y="58.211" fill="#BBBDBF" width="3.949" height="284.245"/>
					<rect x="212.17" y="58.211" fill="#BBBDBF" width="3.949" height="284.245"/>
				</g>
				<rect x="155.863" y="83.425" fill="#BBBDBF" width="60.296" height="3.949"/>
				<rect x="155.863" y="115.347" fill="#BBBDBF" width="60.296" height="3.949"/>
				<rect x="155.863" y="147.269" fill="#BBBDBF" width="60.296" height="3.949"/>
				<rect x="155.863" y="179.19" fill="#BBBDBF" width="60.296" height="3.949"/>
				<rect x="155.863" y="211.111" fill="#BBBDBF" width="60.296" height="3.949"/>
				<rect x="155.863" y="243.034" fill="#BBBDBF" width="60.296" height="3.948"/>
				<rect x="155.863" y="274.956" fill="#BBBDBF" width="60.296" height="3.948"/>
				<rect x="155.863" y="306.876" fill="#BBBDBF" width="60.296" height="3.949"/>
			</g>
			<g>
				<path fill="#473A33" d="M451.573,328.816l0.888,12.256l-4.443,0.171l-0.437-1.58c0,0-7.357,1.921-18.832-0.146
					c0,0,5.004-7.494,15.688-10.261L451.573,328.816z"/>
				<path fill="#5A4A42" d="M440.126,329.65l1.075,12.238l-4.44,0.24l-0.459-1.574c0,0-7.328,2.034-18.832,0.146
					c0,0,4.886-7.57,15.527-10.502L440.126,329.65z"/>
				<path fill="#FFC974" d="M364.103,257.374c0,0-2.105-0.022-3.105,0.042c-1.001,0.064-2.78-6.232-4.008-6.555
					c-1.228-0.321-0.767,5.584-0.691,6.078c0.029,0.199-1.671,0.176-3.854,0.258c-3.188,0.121-7.269,0.336-7.365,0.686
					c-0.165,0.586,1.027,1.25,1.027,1.25s-0.156,1.201,1.032,1.276c0,0,0.222,1.479,1.222,1.416c0,0,0.596,1.175,1.688,1.179
					c0,0-0.301,0.803,1.35,1.146c1.648,0.343,5.346-0.097,6.056-0.44c3.895-1.896,6.86-0.981,6.86-0.981L364.103,257.374z"/>
				<path fill="#D15F22" d="M420.934,231.26c4.78-2.871,11.344,5.275,9.218,10.411c-2.124,5.136-25.807,20.94-27.701,21.542
					s-39.214,1.207-39.214,1.207l0.291-8.384c0,0,34.503-3.989,35.635-4.158C400.293,251.71,416.729,233.786,420.934,231.26z"/>
				<g>
					<path fill="#FFC974" d="M166.353,164.232c0,0,1.705-1.237,2.558-1.764c0.854-0.526-1.341-6.692-0.527-7.665
						c0.813-0.972,3.857,4.109,4.083,4.555c0.092,0.181,1.465-0.824,3.292-2.019c2.67-1.747,6.121-3.934,6.403-3.707
						c0.474,0.383-0.115,1.614-0.115,1.614s0.824,0.889-0.103,1.639c0,0,0.677,1.335-0.176,1.862c0,0,0.193,1.302-0.696,1.939
						c0,0,0.71,0.48-0.437,1.714c-1.147,1.235-4.415,3.018-5.194,3.147c-4.271,0.708-6.161,3.17-6.161,3.17L166.353,164.232z"/>
					<path fill="#75B997" d="M104.895,175.836c-5.561,0.426-6.195,10.868-1.489,13.826c4.706,2.958,33.166,2.138,35.058,1.529
						c1.893-0.606,32.675-21.716,32.675-21.716l-5.09-6.667c0,0-30.444,16.72-31.464,17.237
						C133.565,180.563,109.785,175.462,104.895,175.836z"/>
				</g>
				<path fill="#F37728" d="M262.207,169.693c-1.264-6.162-3.691-11.899-7.038-16.977l7.685-9.083l-6.281-6.282l-6.282-6.282
					l-9.083,7.685c-5.078-3.348-10.814-5.775-16.977-7.04l-0.988-11.849h-8.885h-8.884l-0.988,11.849
					c-6.163,1.265-11.899,3.692-16.977,7.04l-9.083-7.685l-6.282,6.282l-6.282,6.282l7.685,9.083
					c-3.348,5.077-5.775,10.814-7.04,16.977l-11.849,0.988v8.884v8.884l11.849,0.988c1.265,6.162,3.692,11.898,7.04,16.976
					l-7.685,9.084l6.282,6.28l6.282,6.283l9.083-7.686c5.078,3.348,10.814,5.773,16.977,7.039l0.988,11.85h8.884h8.885l0.988-11.85
					c6.162-1.266,11.899-3.691,16.977-7.039l9.083,7.686l6.282-6.283l6.281-6.28l-7.685-9.084
					c3.347-5.077,5.774-10.813,7.038-16.976l11.85-0.988v-8.884v-8.884L262.207,169.693z M214.357,208.506
					c-15.983,0-28.94-12.958-28.94-28.941s12.957-28.941,28.94-28.941c15.984,0,28.941,12.958,28.941,28.941
					S230.341,208.506,214.357,208.506z"/>
				<path fill="#FFD700" d="M357.894,107.712c-1.263-6.162-3.689-11.899-7.037-16.977l7.686-9.083l-6.283-6.282l-6.28-6.282
					l-9.084,7.686c-5.078-3.348-10.813-5.775-16.977-7.04l-0.988-11.849h-8.885h-8.884l-0.988,11.849
					c-6.161,1.264-11.897,3.692-16.978,7.04l-9.082-7.686l-6.282,6.282l-6.282,6.282l7.686,9.083
					c-3.348,5.078-5.774,10.815-7.039,16.977l-11.849,0.987v8.885v8.884l11.849,0.987c1.265,6.163,3.691,11.899,7.039,16.977
					l-7.686,9.083l6.282,6.282l6.282,6.282l9.082-7.685c5.078,3.348,10.814,5.775,16.978,7.04l0.988,11.849h8.884h8.885
					l0.988-11.849c6.162-1.265,11.897-3.692,16.977-7.04l9.084,7.685l6.28-6.282l6.283-6.282l-7.686-9.083
					c3.348-5.078,5.774-10.814,7.037-16.977l11.852-0.987v-8.884v-8.885L357.894,107.712z M310.044,146.524
					c-15.983,0-28.94-12.957-28.94-28.94c0-15.984,12.957-28.941,28.94-28.941s28.94,12.957,28.94,28.941
					C338.984,133.567,326.027,146.524,310.044,146.524z"/>
				<path fill="#00B4BC" d="M353.908,241.973c-0.585-6.263-2.37-12.229-5.145-17.645l8.632-8.188l-5.559-6.932l-5.558-6.932
					l-9.868,6.646c-4.681-3.882-10.118-6.921-16.105-8.852l0.313-11.887l-8.831-0.97l-8.831-0.971l-2.277,11.67
					c-6.264,0.583-12.23,2.37-17.645,5.142l-8.188-8.631l-6.932,5.559l-6.932,5.558l6.646,9.869
					c-3.882,4.681-6.923,10.118-8.854,16.104l-11.885-0.312l-0.97,8.831l-0.971,8.831l11.67,2.275
					c0.583,6.264,2.369,12.232,5.143,17.646l-8.632,8.188l5.558,6.932l5.559,6.931l9.868-6.646
					c4.683,3.881,10.118,6.922,16.106,8.853l-0.312,11.886l8.83,0.973l8.831,0.97l2.276-11.669
					c6.264-0.584,12.231-2.37,17.645-5.143l8.188,8.631l6.932-5.559l6.931-5.559l-6.646-9.867
					c3.883-4.684,6.923-10.119,8.854-16.105l11.886,0.312l0.973-8.831l0.971-8.83L353.908,241.973z M302.104,275.325
					c-15.889-1.746-27.353-16.041-25.604-31.931c1.746-15.888,16.041-27.352,31.931-25.604c15.888,1.746,27.351,16.042,25.604,31.93
					C332.285,265.609,317.99,277.072,302.104,275.325z"/>
				<path fill="#473A33" d="M403.826,238.2c0,0,16.336,17.526,6.315,40.397l1.995,4.771l5.429-4.113
					C417.565,279.256,425.366,251.667,403.826,238.2z"/>
				<g>
					<path fill="#FFC974" d="M167.08,195.204c0,0,2.081-0.333,3.08-0.416s1.831-6.575,2.996-7.074c1.166-0.5,1.582,5.41,1.582,5.91
						c0,0.202,1.678-0.073,3.849-0.312c3.171-0.351,7.238-0.74,7.387-0.41c0.25,0.555-0.833,1.388-0.833,1.388
						s0.333,1.165-0.833,1.415c0,0,0,1.498-0.999,1.581c0,0-0.416,1.249-1.498,1.415c0,0,0.416,0.749-1.166,1.332
						c-1.581,0.583-5.301,0.695-6.055,0.458c-4.13-1.3-6.928,0.042-6.928,0.042L167.08,195.204z"/>
					<path fill="#5A4A42" d="M98.656,324.995l-2.702,11.985l4.367,0.83l0.665-1.496c0,0,6.991,2.994,18.644,2.662
						c0,0-3.829-8.156-13.982-12.483L98.656,324.995z"/>
					<path fill="#5A4A42" d="M32.773,304.627l-9.107,8.246l3.093,3.193l1.406-0.842c0,0,3.994,6.474,13.714,12.906
						c0,0,1.563-8.875-4.25-18.256L32.773,304.627z"/>
					<path fill="#5F554A" d="M75.684,221.346c0,0-13.908,48.014-14.67,51.534c-0.763,3.522-29.739,32.245-29.739,32.245l7.879,7.88
						c0,0,29.111-24.147,32.536-29.993c3.423-5.846,23.566-44.336,24.845-51.199C97.812,224.949,84.34,214.466,75.684,221.346z"/>
					<path fill="#716558" d="M78.361,217.63c0,0-7.035,16.711-3.177,28.308c3.859,11.595,23.639,35.127,25.344,36.149
						c1.705,1.022-2.735,43.652-2.735,43.652l10.92,2.393c0,0,7.743-41.952,6.941-49.456c-0.802-7.503-12.192-32.738-13.215-36.832
						c-1.023-4.093-1.911-10.912-1.911-10.912L78.361,217.63z"/>
					<polygon fill="#75B896" points="106.436,168.228 111.582,168.228 108.055,171.563 					"/>
					<polygon fill="#75B896" points="117.493,177.283 118.064,181.848 115.367,180.602 					"/>
					<path fill="#FFC974" d="M110.82,161.744l-5.719,15.919c0,0,4.957,8.96,9.15,4.957l7.053-17.157L110.82,161.744z"/>
					<path opacity="0.17" fill="#231F20" enable-background="new    " d="M109.43,165.616c1.539,1.577,6.196,6.144,9.043,6.738
						l2.832-6.89l-10.484-3.719L109.43,165.616z"/>
					<g>
						<path fill="#FFC974" d="M138.081,134.009c0,0,4.003,32.98-16.395,33.743c-20.398,0.763-21.351-23.83-21.351-29.168
							c0-5.337,6.799-13.344,19.031-13.344C131.599,125.24,138.081,131.151,138.081,134.009z"/>
						<path fill="#603813" d="M116.348,134.2c0,0,12.391,6.672,24.974,4.957c0,0-0.107-13.911-12.487-17.539
							c-14.965-4.385-20.302,3.622-20.302,3.622s-8.007,0.19-11.248,9.15c-3.24,8.96,1.334,24.211,10.866,31.074
							c0,0,3.241-6.672,3.05-13.726c0,0-6.893-2.062-5.91-8.632c0.763-5.094,6.863-2.288,6.863,1.579
							C112.154,144.685,115.967,141.634,116.348,134.2z"/>
						<path fill="#F8A36A" d="M131.363,151.646c0,0,3.432,6.673,1.716,7.435c-1.716,0.763-3.241,0-3.241,0L131.363,151.646z"/>
						<ellipse fill="#404041" cx="123.465" cy="147.29" rx="2.161" ry="3.177"/>
						<ellipse fill="#404041" cx="135.756" cy="147.79" rx="1.435" ry="2.677"/>
						<path fill="#9A7D47" d="M119.367,158.41c0,0,6.235,3.05,12.332,2.383c0,0-2.768,5.337-7.725,4.099
							C119.017,163.654,119.367,158.41,119.367,158.41z"/>
						<ellipse fill="#F8A98D" cx="121.695" cy="152.853" rx="3.233" ry="1.496"/>
						<path fill="#F8A98D" d="M134.321,152.853c0,0.683,0.99,1.257,2.34,1.437c0.28-0.965,0.521-1.947,0.723-2.93
							C135.678,151.402,134.321,152.053,134.321,152.853z"/>
						<ellipse cx="124.505" cy="146.417" rx="0.422" ry="0.873"/>
						<ellipse cx="136.178" cy="147.29" rx="0.422" ry="0.873"/>
						<path d="M130.768,160.861c-4.276,0.215-8.459-1.224-10.351-1.993c-0.062,0.583-0.022,1.565,0.888,1.976
							c1.326,0.598,6.454,1.453,7.565,1.368C129.832,162.137,130.408,161.906,130.768,160.861z"/>
					</g>
					<path fill="#6DB3A9" d="M106.944,169.657c0,0-26.308,13.09-34.696,50.454c0,0,14.616,18.302,32.853,20.082
						c0,0,0.953-28.723,12.392-62.91L106.944,169.657z"/>
					<polygon fill="#80C9A4" points="106.436,168.228 117.493,177.283 114.569,181.848 102.718,171.183 					"/>
					<path fill="#D0D2D3" d="M117.302,177.759c0,0-14.679,45.23-8.96,57.005l3.24,4.502l2.352-7.445
						C113.934,231.82,110.629,210.525,117.302,177.759z"/>
					<path fill="#80C9A4" d="M107.019,177.759c-5.151-2.135-10.44,6.892-7.58,11.657c2.859,4.766,28.613,16.906,30.576,17.221
						c1.962,0.314,38.964-4.591,38.964-4.591l-1.525-8.249c0,0-34.714,1.145-35.858,1.145S111.55,179.637,107.019,177.759z"/>
				</g>
				<g>
					<path fill="#5F554A" d="M435.982,293.445c-0.266,3.734,17.172,37.154,17.172,37.154h-9.743c0,0-20.258-28.549-20.001-32.908
						C423.667,293.333,435.982,293.445,435.982,293.445z"/>
					<path fill="#716558" d="M430.59,269.488c0,0-19.658,20.556-20.427,25.427c-0.77,4.872,20.77,35.685,20.77,35.685h9.743
						c0,0-12.307-27.734-12.307-31.453c0-3.717,39.94-18.236,28.375-38.89L430.59,269.488z"/>
					<polygon fill="#F37920" points="405.333,227.164 402,238.975 406.873,243.59 406.873,237.436 					"/>
					<path fill="#FFC974" d="M395.567,225.085l16.37,4.261c0,0,4.602,9.147-1.07,10.352l-18.146-3.857L395.567,225.085z"/>
					<path opacity="0.2" fill="#231F20" enable-background="new    " d="M392.723,235.839l8.146,1.731
						c1.306-1.914,3.669-5.768,4.731-9.875l-10.033-2.611L392.723,235.839z"/>
					<path fill="#FFC974" d="M363.695,209.666c0,0,5.333,32.79,25.139,27.845c19.804-4.944,13.873-28.829,12.389-33.956
						c-1.484-5.128-10.246-10.925-21.993-7.521C367.479,199.438,362.899,206.92,363.695,209.666z"/>
					<path fill="#F8A36A" d="M375.056,224.736c0,0-1.438,7.363,0.422,7.617c1.86,0.256,3.114-0.901,3.114-0.901L375.056,224.736z"/>
					
						<ellipse transform="matrix(0.2782 0.9605 -0.9605 0.2782 485.0505 -208.7745)" fill="#404041" cx="381.438" cy="218.353" rx="3.177" ry="2.16"/>
					
						<ellipse transform="matrix(0.2779 0.9606 -0.9606 0.2779 480.4857 -194.7078)" fill="#404041" cx="369.756" cy="222.25" rx="2.676" ry="1.435"/>
					
						<ellipse transform="matrix(0.2783 0.9605 -0.9605 0.2783 492.0031 -208.3749)" fill="#F8A98D" cx="384.662" cy="223.209" rx="1.497" ry="3.233"/>
					<path fill="#F8A98D" d="M372.55,226.718c0.19,0.655-0.599,1.482-1.846,2.031c-0.538-0.851-1.043-1.726-1.509-2.612
						C370.844,225.702,372.328,225.95,372.55,226.718z"/>
					
						<ellipse transform="matrix(0.2782 0.9605 -0.9605 0.2782 483.6126 -207.9575)" cx="380.173" cy="217.799" rx="0.872" ry="0.42"/>
					
						<ellipse transform="matrix(0.2792 0.9602 -0.9602 0.2792 479.219 -194.5867)" cx="369.225" cy="221.918" rx="0.873" ry="0.422"/>
					<g>
						<path fill="#58595B" d="M380.951,234.898c-0.715,0-1.195-0.043-1.26-0.049c-0.142-0.014-0.244-0.14-0.231-0.279
							c0.015-0.143,0.138-0.252,0.279-0.231c0.053,0.009,5.178,0.457,7.638-1.754c0.846-0.761,1.285-1.765,1.301-2.983
							c0.003-0.14,0.117-0.252,0.256-0.252c0.001,0,0.002,0,0.006,0c0.141,0.002,0.254,0.117,0.252,0.26
							c-0.019,1.367-0.516,2.498-1.472,3.357C385.853,234.641,382.701,234.898,380.951,234.898z"/>
					</g>
					<path fill="#603813" d="M365.934,218.354c0,0-7.256-4.22-8.965-10.373l1.623,0.94l-1.623-3.505c0,0,4.103,1.966,6.239-2.479
						c2.138-4.444,6.664-9.146,14.871-11.453c8.207-2.309,15.046,1.683,15.812,3.529c0,0,7.355,0.316,9.319,8.438
						c1.962,8.119,2.324,20.92-3.754,27.212c0,0-1.806-8.488-4.027-13.705c0,0,2.138-3.25-0.258-7.353
						c-2.393-4.104-4.87,1.734-4.87,1.734l-3.354-8.531c0,0-8.653,11.795-21.667,11.475L365.934,218.354z"/>
					<path fill="#F05A28" d="M405.333,227.164c0,0,46.026-3.574,53.463,34.118c0,0-4.872,6.667-30.513,10.257
						c0,0,6.796-20.833-25.256-32.691L405.333,227.164z"/>
					<polygon fill="#F6921E" points="405.333,227.164 403.027,238.846 410.72,241.923 410.72,226.41 					"/>
					<path fill="#FFC974" d="M356.787,246.75c0,0-2.081-0.333-3.079-0.417c-0.999-0.083-1.832-6.575-2.996-7.074
						c-1.165-0.5-1.582,5.41-1.582,5.909c0,0.203-1.679-0.072-3.85-0.312c-3.17-0.35-7.238-0.738-7.386-0.408
						c-0.25,0.556,0.83,1.387,0.83,1.387s-0.331,1.166,0.833,1.416c0,0,0,1.498,0.999,1.581c0,0,0.415,1.248,1.498,1.415
						c0,0-0.416,0.749,1.166,1.332c1.58,0.582,5.301,0.693,6.056,0.457c4.13-1.299,6.928,0.042,6.928,0.042L356.787,246.75z"/>
					<path fill="#F26E28" d="M416.848,229.305c5.152-2.136,10.44,6.891,7.581,11.656c-2.858,4.766-28.612,16.905-30.573,17.221
						c-1.965,0.314-38.967-4.592-38.967-4.592l1.525-8.248c0,0,34.715,1.145,35.857,1.145
						C393.415,246.486,412.316,231.182,416.848,229.305z"/>
				</g>
			</g>
			<path fill="#FFC974" d="M154.625,78.716c-0.614-1.391-1.276-3.575-0.681-4.768c0.596-1.191,1.655-2.449,2.45-3.575
				c0.794-1.125,1.39,0.066,0.794,1.06c0,0,0.397,0.729-0.265,1.655c0,0,0.397,0.471-0.132,1.229c0,0,0.596,0.75-0.132,1.516
				c-0.729,0.765-1.251,2.155-1.208,2.884C155.493,79.444,154.625,78.716,154.625,78.716z"/>
			<path fill="#FFC974" d="M159.851,75.382c0,0-1.889-1.098-1.975-0.356c-0.085,0.74,1.073,2.584,1.975,2.619
				C160.753,77.678,160.424,75.677,159.851,75.382z"/>
		</g>
		<circle fill="#00B4BC" cx="305.266" cy="246.832" r="20.363"/>
		<circle fill="#FFD700" cx="310.044" cy="117.893" r="20.362"/>
		<circle fill="#F37728" cx="213.983" cy="179.565" r="20.363"/>
	</g>
</g>
<g id="DESIGNED_BY_FREEPIK">
</g>
</svg>
